<?xml version="1.0" encoding="UTF-8"?>
<svg id="Capa_2" data-name="Capa 2" xmlns="http://www.w3.org/2000/svg" viewBox="0 0 65.63 45.53">
  <defs>
    <style>
      .cls-1 {
        fill: #fff;
      }
    </style>
  </defs>
  <path class="cls-1" d="M65.63,45.14c-3.1,1.04-2.35-3.71-5.52-2.71l-.02,2.76c-.58.08-1.02.09-1.59-.01v-8.31s4.39.06,4.39.06c1.44.02,2.46,1.03,2.59,2.37s-.66,2.56-2.07,2.81l2.22,3.04ZM62.84,40.97c.85-.01,1.2-.83,1.15-1.39-.12-1.37-1.87-1.55-3.9-1.31l.04,2.74,2.71-.03Z"/>
  <path class="cls-1" d="M29.6,45.11c-3.12,1.13-2.36-3.56-5.52-2.69l-.05,2.79h-1.54s0-8.34,0-8.34l4.08.04c1.58.02,2.66.92,2.77,2.32s-.46,2.6-1.96,2.86c.85,1.16,1.39,2.1,2.22,3.02ZM26.85,40.95c.77-.1,1.1-.88,1.08-1.38-.07-1.32-1.85-1.58-3.9-1.29l.02,2.72c.96.06,1.75.09,2.8-.04Z"/>
  <path class="cls-1" d="M19.08,41.13c0,2.43-1.97,4.41-4.41,4.41s-4.41-1.97-4.41-4.41,1.97-4.41,4.41-4.41,4.41,1.97,4.41,4.41ZM15.31,44.02c1.56-.31,2.29-1.81,2.19-3.1s-.98-2.65-2.52-2.81c-1.93-.2-3.36,1.47-3.18,3.31.15,1.56,1.51,3,3.51,2.6Z"/>
  <path class="cls-1" d="M47.75,43.41c-1.4-.23-2.96-.27-4.22.05-.19.54-.36,1.15-.54,1.42-.28.42-1.07.54-1.65.26l3.62-8.23c.18-.25,1.27-.25,1.4.02l3.62,8.24c-.85.23-1.37.08-1.68-.26-.22-.24-.34-.97-.54-1.5ZM47.07,41.87l-1.39-3.16-1.47,3.24c1.11.05,1.99.13,2.86-.08Z"/>
  <path class="cls-1" d="M36.67,45.38c-1.62.35-3.16-.29-4.41-1.22.15-.33.55-.82.96-.95.99.56,1.91,1.11,3.09.9.58-.1.98-.54,1.01-1.04.12-1.7-5.6-.94-4.69-4.36.2-.77.73-1.5,1.7-1.77,1.5-.41,3.16-.13,4.13.98l-.43.67c-.41.62-1.8-1.01-3.42-.36-.43.17-.53.63-.49.98.13,1.28,2.21.92,3.79,1.94.86.56.97,1.57.76,2.54-.16.74-.81,1.43-2.01,1.69Z"/>
  <path class="cls-1" d="M1.66,40.19c-.45,1.46.25,2.95,1.37,3.57,1.18.66,2.66.34,3.68-.77.35.24.63.5.95,1.01-1.62,1.83-4.32,2-6.11.54-1.87-1.53-2.05-4.55-.51-6.33s4.53-2.03,6.42-.28c.31.29-.61,1.33-1,1.03-.91-.69-1.73-1.1-2.83-.8-.77.22-1.61.83-1.97,2.02Z"/>
  <rect class="cls-1" x="53.25" y="36.86" width="1.41" height="8.43"/>
  <g>
    <path class="cls-1" d="M16.3,32.37c4.2-5.34,5.31-11.8,2.52-17.99l7.16,3.72c.29,2.72.06,5.23-.19,8.03,2.26-5.04,2-10.58.02-15.67l7.65,5c.24,3,.01,5.69-.22,8.78,2.77-5.67,2.33-11.83-.48-17.85,4.64,3.13,8.72,6.41,12.67,10.04,1.58,1.45,2.97,2.93,4.04,4.76.73,2.36.2,4.7-1.24,6.87-2.46-3.87-9.06-2.74-14.1-1.65-6.1,1.34-11.51,3.65-17.83,5.97Z"/>
    <path class="cls-1" d="M44.54,13.55c-.62-.94-1.07-1.94-2.02-2.64-1.64-1.46-3.54-2.35-5.75-3.14-.2-2.75-1.14-5.07-2.29-7.77,4.64,2.88,11.86,8.12,10.06,13.55Z"/>
    <path class="cls-1" d="M32.91,12.5l-3.82-1.23c.05-2.18-.81-3.92-1.83-5.97l4.43,2.82c.5,1.37,1.01,2.46,1.22,4.37Z"/>
    <path class="cls-1" d="M25.78,15.76l-3.59-.77c.09-1.98-.77-3.39-1.67-5.19,1.39.74,2.92,1.24,3.96,2.26.75,1.01.83,2.43,1.3,3.69Z"/>
  </g>
</svg>