<?xml version="1.0" encoding="UTF-8"?>
<svg id="Capa_2" data-name="Capa 2" xmlns="http://www.w3.org/2000/svg" viewBox="0 0 102.05 9.6">
  <defs>
    <style>
      .cls-1 {
        fill: #fff;
      }
    </style>
  </defs>
  <path class="cls-1" d="M41.57,9.51l-4.62.02-2.73-6.39-2.26,6.27c-1.01.26-2,.18-3.45.1L32.14.11h4.51s2.89,6.53,2.89,6.53L41.77.15h3.38s-3.58,9.35-3.58,9.35Z"/>
  <path class="cls-1" d="M85,5.95h-7.46c-.55.01-.76,1.13-.43,1.14l7.36.2-.78,2.24h-11.16S76.01.15,76.01.15l11.23-.08-.8,2.36h-7c-.31,0-.79.06-.91.2-.17.19-.41.62-.21.99,2.47.28,4.98.02,7.53.13l-.84,2.2Z"/>
  <path class="cls-1" d="M91.35,7.06l7.75.14c.05.88-.26,1.67-.74,2.41h-8.79c-1.12-.02-2.16-.89-1.99-2.04.22-1.53,1.01-2.84,1.5-4.23.76-2.17,2.57-3.27,4.91-3.27h8.08c-.19.96-.51,1.68-1.06,2.39h-6.35c-2.14,0-3,1.93-3.3,4.61Z"/>
  <path class="cls-1" d="M54.56,9.54l-1.22-6.18-5.35,6.14-4.07-.04c1.02-.88,1.68-1.88,2.58-2.83l5.76-6.08c.87-.92,2.91-.44,4.09-.3l1.59,9.27-3.4.03Z"/>
  <path class="cls-1" d="M65.81,9.34c-1.18.41-2.34.24-3.66.17l2.58-6.98-4.2-.04.87-2.38,12.26-.02-.84,2.26-4.36.24-2.65,6.74Z"/>
  <g>
    <path class="cls-1" d="M21.94,3.49l-5.6,6.05-3.91-.08,5.12-5.47c1.18-1.26,2.28-2.71,3.67-3.74,1.01-.42,2.37-.12,3.65-.1l1.63,9.36h-3.49s-1.07-6.02-1.07-6.02Z"/>
    <g>
      <path class="cls-1" d="M4.66,6.49c-.56.97-.67,2.17-1.28,2.94-1.01.31-2.13.14-3.39.08l2.07-5.49,10.93.05c-.22,1.01-.59,1.69-1.1,2.4l-7.24.02Z"/>
      <path class="cls-1" d="M14.18,2.67l-11.33.05c-.15-.85.4-2.49,1.43-2.51L15.27.08c-.28.92-.51,1.57-1.09,2.59Z"/>
    </g>
  </g>
</svg>