<?xml version="1.0" encoding="UTF-8"?>
<svg id="Capa_2" data-name="Capa 2" xmlns="http://www.w3.org/2000/svg" viewBox="0 0 100.66 14.48">
  <defs>
    <style>
      .cls-1 {
        fill: #fff;
      }
    </style>
  </defs>
  <path class="cls-1" d="M.02,13.41l90.59-.11c-.08-.29-.09-.65-.06-.93-1.9-.33-4.43.46-6.43-.4s1.43-8.57,4.66-8.61l11.89-.15-3.71,8.24c-.68,1.52-2.16,2.99-4.13,2.99l-92.28.02c-.44-.03-.6-.75-.53-1.06ZM91.45,10.99l2.94-6.35c-.8-.51-2.53-.53-2.88.22l-2.91,6.28c.95.15,2.07.18,2.85-.15Z"/>
  <path class="cls-1" d="M23.19,12.23l-5.71.02-1.31-3.26c-.86,1.15-.91,2.48-1.65,3.16-1.91.39-3.66.14-5.66.05L14.45,0l12.3.23c2.07.04-.03,7.77-4.52,8.75.09,1.26.45,2.05.95,3.25ZM19.52,7.48l2.88-5.98c-.56-.64-2.51-.75-2.94.16l-2.87,6.14c.78.33,2.54.48,2.93-.32Z"/>
  <path class="cls-1" d="M74.41,12.19c1.3-2.6,2.4-4.89,3.52-7.59-.95-.37-1.98-.29-2.59-.03l-3.72,7.74-5.67-.08,3.99-8.91,11.56-.08c.64,0,1.2.27,1.47.61.34.43.51,1.22.2,1.9l-2.98,6.57-5.78-.13Z"/>
  <path class="cls-1" d="M28.69,12.33c-1.02,0-1.77-.23-2.17-.77-.99-1.32,1.03-6.11,5.27-6.16l5.25-.07c.11-.24.19-.59.19-.7l-6.77-.42c.13-.23.17-.62.14-.79l10.31-.2c1.13-.02,2.16,1.09,1.67,2.18l-3.1,6.86-10.77.07ZM34.33,10.8l1.94-4.01c-.52-.4-2.11-.55-2.62.07-.93,1.14-1.32,2.52-2.03,4.07.59.42,2.34.64,2.71-.13Z"/>
  <path class="cls-1" d="M48.02,10.99c1.28.47,2.27.23,2.73-.04.4-.23.61-1.23.95-1.76,1.68-.35,3.58-.19,5.53-.1-.47,1.76-2.26,3.28-4.37,3.19-3.1-.14-6.43.49-9.4-.31-2.06-.55,1.17-8.6,4.7-8.6h9.77c1.25,0,1.55,2.61.53,2.93-1.83.58-3.69.14-5.58.18l.83-1.84c-.74-.48-2.5-.57-2.87.24l-2.83,6.12Z"/>
  <polygon class="cls-1" points="6.78 12.29 1.04 12.21 5.15 3.28 10.84 3.22 6.78 12.29"/>
  <polygon class="cls-1" points="63.95 12.19 58.11 12.21 62.2 3.35 67.84 3.3 63.95 12.19"/>
  <path class="cls-1" d="M12.18.03c-.27,2.95-2.55,2.11-6.54,2.08l1.04-2.12,5.5.03Z"/>
  <path class="cls-1" d="M69.23.05c-.23,2.99-2.36,1.99-6.33,2.14.02-.75.38-1.56.84-2.07l5.49-.07Z"/>
</svg>