<?xml version="1.0" encoding="UTF-8"?>
<svg id="Capa_2" data-name="Capa 2" xmlns="http://www.w3.org/2000/svg" viewBox="0 0 100.14 25.62">
  <defs>
    <style>
      .cls-1 {
        fill: #fff;
      }
    </style>
  </defs>
  <g>
    <path class="cls-1" d="M66.71,19.51l-.03-5.95c0-1.37-1.08-2.2-2.4-2.12-1.22.08-2.28.86-2.28,2.15l-.03,5.9-2.52.02V4.91s2.52,0,2.52,0l.02,5.27c.9-.96,2.05-1.27,3.28-1.24,2.11.05,3.71,1.54,3.94,3.68v6.9s-2.5,0-2.5,0Z"/>
    <path class="cls-1" d="M42.11,17.33c1.27.13,2.31-.45,3.18-1.31l1.79,1.78c-1.98,1.94-4.92,2.48-7.4,1.3-1.76-.84-2.63-2.62-2.69-4.52-.11-3.3,2.45-5.85,5.73-5.66s5.2,3.01,4.96,6.35h-7.99c.31,1.16,1.19,1.93,2.42,2.06ZM44.92,13.29c-.26-1.28-1.23-1.95-2.36-2.04-1.36-.13-2.58.65-2.93,2.08l5.29-.04Z"/>
    <path class="cls-1" d="M26.46,11.26l-.78.37c1.14,1.77,1.08,3.88,0,5.67-.95,1.57-2.76,2.56-4.78,2.52-3.44-.07-5.87-3.03-5.28-6.44.59-3.39,4.01-5.16,7.26-4.22l3.51.11.06,1.98ZM24.04,14.36c0-1.64-1.33-2.97-2.97-2.97s-2.97,1.33-2.97,2.97,1.33,2.97,2.97,2.97,2.97-1.33,2.97-2.97Z"/>
    <path class="cls-1" d="M14.57,14.37c0,3.03-2.46,5.49-5.49,5.49s-5.49-2.46-5.49-5.49,2.46-5.49,5.49-5.49,5.49,2.46,5.49,5.49ZM12.06,14.37c0-1.64-1.33-2.98-2.98-2.98s-2.98,1.33-2.98,2.98,1.33,2.98,2.98,2.98,2.98-1.33,2.98-2.98Z"/>
    <path class="cls-1" d="M52.03,12.18c-1.42,1.28-1.1,3.71.28,4.66,1.37.94,3,.54,4.28-.81l1.77,1.77c-1.3,1.45-3.12,2.2-5.03,2-2.92-.32-4.94-2.77-4.86-5.59.08-2.84,2.32-5.12,5.25-5.22,1.83-.06,3.53.58,4.65,2.04l-1.78,1.79c-1.19-1.51-3.24-1.83-4.57-.63Z"/>
    <polygon class="cls-1" points="35.26 19.5 32.74 19.51 32.74 11.5 31.4 11.48 31.41 9.26 32.72 9.23 32.74 6.08 35.26 6.07 35.26 9.22 36.72 9.27 36.72 11.49 35.26 11.51 35.26 19.5"/>
    <rect class="cls-1" y="4.94" width="2.52" height="14.63"/>
    <path class="cls-1" d="M24.02,20.22l2.54-.02c-.02,3.17-2.64,5.56-5.81,5.41-2.96-.14-5.24-2.44-5.21-5.41l2.58-.02c0,1.67,1.28,2.92,2.86,2.96s2.98-1.12,3.05-2.92Z"/>
    <rect class="cls-1" x="27.53" y="9.24" width="2.57" height="10.32"/>
    <circle class="cls-1" cx="28.96" cy="6.36" r="1.72"/>
  </g>
  <g>
    <path class="cls-1" d="M88.76,5.21c-4.11.03-7.29,3.22-7.32,7.24s3.1,7.3,7.28,7.38l.04,5.2c-6.93.03-12.56-5.59-12.6-12.44S81.65.04,88.72,0l.04,5.21Z"/>
    <polygon class="cls-1" points="94.98 21.44 94.98 15.37 88.91 15.35 88.91 10.27 100.14 10.27 100.14 21.42 94.98 21.44"/>
  </g>
</svg>