<?xml version="1.0" encoding="UTF-8"?>
<svg id="Capa_2" data-name="Capa 2" xmlns="http://www.w3.org/2000/svg" viewBox="0 0 98.2 20.22">
  <defs>
    <style>
      .cls-1 {
        fill: #fff;
      }
    </style>
  </defs>
  <rect class="cls-1" y="13.12" width="98.2" height=".76"/>
  <path class="cls-1" d="M96.16,18.65c-.24-.73-1.85.2-1.82-.88.72-.24,1.41-.13,2.31-.13.37.53.44,2.35-.46,2.38l-4.75.15c-1.29.04-1.12-2.66-.73-4.93l6.03-.09c.17,0,.18.57,0,.57l-5.43.12v3.56s4.44-.01,4.44-.01c.31,0,.49-.55.42-.74Z"/>
  <path class="cls-1" d="M6.7,18.39l-4.56-.06-.04,1.78c-.21.08-.44.11-.76.02l-.02-3.92c0-.55.31-1.03.88-1.04l3.62-.04c.74,0,1.31.24,1.63.75.37.6-.08,1.16-.07,1.82l.02,2.44-.39.04c-.29-.45-.1-.99-.33-1.79ZM6.37,17.52c.59,0,.68-.79.57-1.11-.15-.43-.52-.67-1.1-.65l-3.44.11c-.44.2-.44,1.25-.22,1.7l4.19-.04Z"/>
  <path class="cls-1" d="M42.84,19.44c.36,0,.5.23.51.38,0,.13-.16.36-.41.36l-5.65-.14c-.41-1.6-.41-3.25,0-4.83h6.02s.06.35.06.35l-5.44.28c-.25,1.15-.24,2.4-.02,3.56l4.93.04Z"/>
  <path class="cls-1" d="M78.9,15.36v4.84c-.8.02-1.23-.56-1.78-1.02l-3.71-3.06-.04,3.62c0,.28-.13.55-.63.46l-.02-5.01c.62-.15.98.18,1.38.52l4.12,3.46.07-3.61c0-.16.08-.33.15-.38.09-.07.35-.06.47.18Z"/>
  <path class="cls-1" d="M24.28,18.76h-3.8s-.8,1.42-.8,1.42c-.12,0-.3-.01-.38-.05l1.54-3.98c.28-.72.95-1.02,1.57-1.03.81,0,1.25.53,1.57,1.32l1.47,3.6c-.15.07-.28.16-.27.15-.53-.25-.57-.84-.9-1.43ZM23.99,18.05l-.83-2c-.44-.46-1.25-.46-1.6.1-.39.62-.62,1.2-.84,1.92l3.27-.02Z"/>
  <rect class="cls-1" x="57.8" y="15.07" width=".46" height="5.1"/>
  <g>
    <path class="cls-1" d="M71.87,10.03l-22.15.02c-.16-.88-.13-1.58-.01-2.38l12.84-4.95-12.83-.2-.06-2.5h22.16c.16.9.12,1.61,0,2.46l-12.7,4.8,12.72.28.04,2.48Z"/>
    <path class="cls-1" d="M43.94,10.04l-14.4-.04c-1.44-.6-2.69-1.56-4-2.37l.05-5.19c1.28-.91,2.47-1.6,3.79-2.43h14.41s3.85,2.34,3.85,2.34c.23,1.7.14,3.41.06,5.21l-3.76,2.48ZM42.04,7.49c.65,0,1.55-.47,1.69-1.07.23-.98.07-1.9.06-2.88-.36-.58-1.02-.99-1.75-.99l-11.13.02c-.44,0-1.3.5-1.35.89-.13,1.03-.17,2.01,0,3.01.11.68,1.14,1.03,1.79,1.03l10.7-.02Z"/>
    <path class="cls-1" d="M20.06,10.06l-.19-6.2-5.57,3.23c-.9.52-2.6.58-3.49.05l-5.57-3.33-.18,6.13c-1.2.2-2.36.15-3.68.05L1.36,0l3.67.1,7.5,4.73L20,0l3.61.05-.02,9.94-3.53.06Z"/>
    <path class="cls-1" d="M91.88,8.78h-12.49c-.5,0-.81.8-1.05,1.14-1.33.21-2.66.17-4.3.04L80.18.02l10.56-.02,6.18,9.85c-1.37.4-2.7.14-4.11.19-.38-.33-.55-.67-.93-1.25ZM90.14,6.15c-.75-1.61-1.42-2.51-2.22-3.58h-5.03s-2.06,3.68-2.06,3.68l9.3-.1Z"/>
  </g>
</svg>