<?xml version="1.0" encoding="UTF-8"?>
<svg id="Capa_2" data-name="Capa 2" xmlns="http://www.w3.org/2000/svg" viewBox="0 0 100.66 23.91">
  <defs>
    <style>
      .cls-1 {
        fill: #fff;
      }
    </style>
  </defs>
  <g>
    <path class="cls-1" d="M11.5,9.66c.04-.08-.2-1.01-.02-1.7l.41-1.54c-.73-.06-1.33.54-1.42,1.25-.05.41.35.66.26.9-.06.16-.25.2-.42.18-.42-.05-.54-.44-.67-.76-.13-.33-.09-.5-.03-.82.15-.72.53-1.34,1.25-1.63l.76-.31c-.25-.27-.58-.54-.97-.57-.78-.07-1.42,1.18-1.7,2.09l-.61,1.98c-.4,1.3-1.16,2.8-2.51,2.94-.64.07-1.17-.09-1.63-.5-.42-.38-.64-.93-.62-1.61-.52.11-.92-.03-1.27-.37l-.51-.18c-.33-.26-.54-.63-.72-1C.7,7.24.07,7.44,0,7.11c-.03-.17.28-.62.37-.7s.4-.09.45.01c.43.95,1.41.64,2.09,1.23.09.08.19.37.38.29.19-.4.47-.7.84-.72.46-.03.92.05,1.1.51.36.89-.44,1.72-.11,2.15.11.14.46.22.66.07.44-.36.72-.93.89-1.49l.61-1.99c.28-.93.55-1.87,1.16-2.66.99-1.28,2.88-1.31,4.05-.22.56.52.82,1.23.94,1.99,1.12.66,2.01,1.77,2.01,3.1.82.17,1.43.63,1.98,1.23.21.23.37.48.68.63.37-.43.3-1-.07-1.43-.67-.8-1.11-.27-1.3-.74-.05-.11.03-.29.19-.38.52-.27,1.13-.18,1.6.19.8.63,1.05,1.7.69,2.74.58.04,1.23-.48,1.17-1.08-.06-.66-.47-1.22-.89-1.68l-1.41-1.53c-.63-.68-1.21-1.41-1.51-2.29s-.12-1.79.55-2.36,1.61-.66,2.45-.13c.11-.51.43-.8.9-.88.31-.45.8-.56,1.34-.5,1.08.15,1.23-.54,1.61-.48.3.04.54.81.3.94s-.67.03-.87.23l-.44.43c-.39.38-.8.63-1.34.74.37.56.38,1.25-.08,1.64-.51.42-1.22.2-1.62-.28-.22-.27-.44-.56-.78-.69-.18-.07-.35.11-.42.21-.31.45.4,1.44.95,2.03l1.99,2.15c.49.52.87,1.13,1.05,1.82.39,1.46-.43,3.02-1.91,3.29l-.79.15-1.45-.26c-1.09.57-2.55.84-3.63.16-.84.97-1.85.91-2.97,1.36.19.44.67.7,1.06.71,1.02.02,1.04-.8,1.41-.82.08,0,.26.09.27.2.13.8-.44,1.34-1.18,1.55-.87.23-1.81-.07-2.41-.81-.37.34-.31.79-.02,1.19.32.45,1,.66,1.59.53l3.61-.75c1.58-.32,3.39.12,3.58,1.74.1.85-.25,1.67-1.09,2.08.22.22.38.52.3.83-.09.34.11.61.11.87.01.6-.46,1.07-.69,1.58l-.05.99c-.2.17-.86.05-.96-.08-.24-.31.31-.55.21-1.02l-.23-1.09c-.07-.34-.07-.59.19-.95-.37-.11-.72-.11-1.03-.3-.36-.22-.46-.65-.4-1.07.04-.33.33-.67.73-.77l.96-.25c.23-.06.38-.26.38-.46-.01-.57-.97-.67-1.83-.47l-2.84.64c-1.22.28-2.59.38-3.56-.37-.71-.55-1.08-1.62-.95-2.51s.56-1.64,1.31-2.18c.02-2.37,1.58-3.24,1.61-3.28ZM11.71,8.16c-.14.57-.07,1.1.26,1.6-1.2.56-1.92,2.04-1.79,3.37-.68.48-1.21,1.15-1.32,1.96s.13,1.56.68,2.13c.82.84,2.01.88,3.21.59l1.98-.48c1.25-.3,3-.65,3.33.37.09.27-.07.58-.34.74-.37.22-.81.21-1.18.35-.46.17-.71.62-.56.96.41.95,1.29.23,1.51.75.07.17-.14.3-.19.44-.23.6.04,1.17.2,1.74-.06.21-.32.53.06.72.15-.6.32-1.15.67-1.62.24-.32.08-.65.1-.96.04-.43.08-.74-.24-1.02-.28-.24-.6-.25-1.04-.21.22-.23.5-.15.75-.22.65-.17,1.11-.66,1.24-1.17.18-.72-.04-1.31-.55-1.76-.8-.7-1.99-.65-3.06-.41l-2.62.58-1.46.04c-.42.01-.92-.3-1.1-.69-.26-.59-.14-1.34.28-1.77.49.73,1.2,1.21,2.01,1.14.64-.05,1.38-.39,1.38-1.1-.54.51-1.04.73-1.66.63-.57-.09-1.02-.47-1.22-1.12l1.25-.39c.82-.17,1.54-.49,2-1.22,1.05.89,2.53.58,3.75-.06.46.17.97.3,1.55.28,1.46-.05,2.71-1.45,2.36-2.94-.2-.86-.78-1.56-1.36-2.18l-1.05-1.12c-.78-.83-2.17-2.23-1.53-3.13.29-.41.91-.22,1.2.07l.69.7c.32.33.77.15,1.02-.15.56-.68-.51-1.32-.16-1.6.19-.15.54-.06.77-.07l1.11-.98.65-.29c.05-.14-.08-.24-.18-.19l-.67.31c-.14-.13-.3-.14-.47-.07-.51-.09-1.04.05-1.33.5-.41.03-.7.32-.79.63-.15.38.2.61.31,1.02-.46-.38-.72-.89-1.31-1.05-.78-.21-1.59.19-1.96.93-.33.66-.15,1.46.22,2.09.94,1.6,2.36,2.55,3.19,3.9.31.51.49,1.16.23,1.72-.3.64-1.07.85-1.75.74.6-1.01.4-2.29-.61-2.91-.3-.19-.71-.32-1.03.02.77.06,1.29.54,1.42,1.24.09.53-.02,1.09-.42,1.41l-1.64-1.52c-.35-.32-.76-.46-1.25-.48-.01-1.39-.85-2.52-2.04-3.19-.12-1.09-.71-2.11-1.75-2.52-1.19-.47-2.39,0-3.02,1.07-.45.76-.7,1.57-.96,2.42l-.61,1.97c-.18.57-.43,1.06-.91,1.44-.29.23-.78.31-1.03-.09-.27-.44-.04-1.08.14-1.58s-.33-1.13-.85-1.03c-.6.11-.73.99-1.03.99-.06,0-.22-.08-.23-.15-.16-.75-1.1-.77-1.71-1-.24-.09-.42-.56-.8-.21.22.19.56.25.71.45.26.46.45.99.92,1.26.16.09.4.07.54.25.17.22.43.28.71.24.2-.03.41-.18.58-.47.23.23,0,.41-.04.62-.21.97.58,1.82,1.57,1.98.31.05.74-.1,1.01-.27,2.4-1.56,1.79-6.94,4.29-6.74.57.05,1.05.42,1.33,1.06-.46.09-.92.18-1.32.46-.72.5-1.08,1.34-.78,2.16.07.18.23.31.42.26-.28-.58-.15-1.22.17-1.63.43-.54,1.01-.63,1.63-.51l-.49,1.94Z"/>
    <path class="cls-1" d="M17.27,11.51c-1.02.36-2.53.05-2.71-.82-.04-.18.1-.36.21-.44.59-.39,1.79.64,2.5,1.26ZM16.5,11.4c-.07-.38-.32-.36-.49-.5-.34-.28-.73-.56-1.2-.3.21.65.98.77,1.69.81Z"/>
    <path class="cls-1" d="M13.02,11.8c-.55.42-1.13.59-1.74.82l-.15.08c-.29.16.13-1.12.96-1.69.29-.21.78-.39,1.08-.15s.13.73-.16.94ZM13.01,11.08c-.31-.33-1.19.39-1.49,1.12.79-.19,1.8-.79,1.49-1.12Z"/>
    <path class="cls-1" d="M13.53,9.54c-.69.09-.73-1.02-.58-2.01.04-.27.17-.49.15-.84,1.03.84,1.22,2.75.43,2.86ZM13.36,7.42c-.42.74-.3,1.72.12,1.82.38.09.45-.98-.12-1.82Z"/>
  </g>
  <g>
    <path class="cls-1" d="M38.59,17.06c-.36.1-.76.03-1.25.05l-2.91-5h-2.38s.01,5,.01,5h-1.08s0-11,0-11l5.17.04c1.31,0,2.3,1.02,2.47,2.3.04.45.06.89,0,1.33-.19,1.44-1.33,2.43-2.85,2.36l2.82,4.92ZM36.4,11.02c.81-.41,1.25-1.03,1.16-1.89.1-.82-.46-1.88-1.37-1.88l-4.13-.02.02,3.82,4.32-.02Z"/>
    <path class="cls-1" d="M50.52,9.66c-.08-.19-.04-.25-.19-.28s-.2.04-.2.21l-3.03,7.51-1.19-.02,4.4-10.87,4.41,10.88-1.19.03-3-7.46Z"/>
  </g>
  <g>
    <g>
      <polygon class="cls-1" points="84.5 7.21 77.56 7.22 77.54 6.11 85.09 6.12 84.5 7.21"/>
      <polygon class="cls-1" points="84.53 12.1 77.53 12.1 77.53 11.04 85.1 11.04 84.53 12.1"/>
      <polygon class="cls-1" points="84.5 17.09 77.53 17.11 77.52 16.02 85.08 16.02 84.5 17.09"/>
    </g>
    <path class="cls-1" d="M100.65,17.09h-1.31s-2.87-4.97-2.87-4.97l-2.32-.02v4.99s-1.14,0-1.14,0V6.11s5.17.03,5.17.03c1.21,0,2.11.86,2.41,2.02.05.61.12,1.29,0,1.9-.28,1.33-1.42,2.13-2.8,2.07l2.86,4.97ZM99.55,9.06c.14-.91-.52-1.73-1.42-1.85h-3.98s0,3.83,0,3.83h4.17c.87-.32,1.38-1.09,1.23-1.98Z"/>
    <path class="cls-1" d="M69.03,17.1h-7.01s5.7-9.89,5.7-9.89h-5.65c-.04-.4-.07-.76,0-1.1h7.58s-5.7,9.89-5.7,9.89h5.67s-.6,1.09-.6,1.09Z"/>
  </g>
</svg>