<?xml version="1.0" encoding="UTF-8"?>
<svg id="Capa_1" data-name="Capa 1" xmlns="http://www.w3.org/2000/svg" viewBox="0 0 389.9 102.52">
  <path d="M200.02,8.93C192.55,2.98,181.93,0,168.17,0h-45.55l-20.5,102.52h34.56l5.04-25.19h17.66c10.54,0,19.7-1.81,27.46-5.42,7.76-3.61,13.77-8.69,18.01-15.23,4.25-6.54,6.37-14.11,6.37-22.7,0-10.74-3.73-19.09-11.2-25.04ZM172.27,47.08c-2.64,2.39-6.35,3.59-11.13,3.59h-14.16l4.79-24.02h11.56c4,0,7.15.81,9.45,2.42,2.29,1.61,3.44,4.27,3.44,7.98,0,4.3-1.32,7.64-3.95,10.03Z"/>
  <g>
    <polygon points="234.58 62.98 278.01 62.98 282.99 38.08 252.74 38.08 239.57 38.08 205.66 38.08 192.77 102.52 278.01 102.52 283.28 76.45 231.87 76.45 234.58 62.98"/>
    <polygon points="213.28 0 208.06 26.07 205.66 38.08 211.89 51.26 234.58 62.98 241.98 26.07 252.74 26.07 306.77 26.07 312.04 0 213.28 0"/>
  </g>
  <path d="M257.07,102.52l57.85-63.41-4.54,20.06L279.47,0h36.91l17.87,36.47-14.94.29L350.94,0h38.96l-54.04,59.61,1.17-19.48,33.68,62.39h-37.35l-18.6-38.37,15.67.29-32.07,38.08h-41.3Z"/>
  <path d="M0,102.52L65.32,0h33.98l14.31,102.52h-34.42l-6.55-86.55h13.47l-49.65,86.55H0ZM30.17,89.87l13.77-24.9h47.16l3.81,24.9H30.17Z"/>
</svg>