<?xml version="1.0" encoding="UTF-8"?>
<svg id="Capa_2" data-name="Capa 2" xmlns="http://www.w3.org/2000/svg" viewBox="0 0 37.79 46.48">
  <defs>
    <style>
      .cls-1 {
        fill: #8bed02;
      }
    </style>
  </defs>
  <path class="cls-1" d="M27.38,33.37c-1.95,3.02-5.41,5.63-9.18,5.1-5.58-.78-9.61-5.42-11.25-10.69-2.24.61-5.48.63-6.56-1.96-.71-1.69-.2-4.01-.23-5.82s1.39-2.74,2.88-3.23c-.29-6.37,2.96-11.91,7.9-14.68,5.78-3.24,12.13-2.62,17.56,1.21,4.19,2.96,5.87,8.29,6.03,13.29,2.53.97,3.22,2.8,3.26,5.55.04,2.91-.32,4.95-3.29,6.1.11,1.82-.22,4.63-2.34,4.79l-4.78.34ZM20.11,3.8c7.11.5,11.66,6.34,10.78,12.96l2.16-.18c.86-4.92-1.53-9.45-5.47-12.5C22.97.52,16.59-.07,11.47,3.09c-4.45,2.75-7.62,7.65-6.93,13.52.48,0,1.03,0,2.14.17-.19-3.61.8-7.14,3.24-9.62,2.64-2.69,5.96-3.65,10.18-3.35ZM23.41,7.98c2.03,2.82,3.9,4.02,6.02,5.31-1.12-5.4-5.81-8.37-10.47-8.48-4.79-.11-9.56,3.19-10.56,8.07,3.99-3.87,8.81,1.29,15.01-4.91ZM19.04,35.23c-.99-.31-2.28-1.28-2.1-2.82.21-1.79,1.73-2.49,3.1-2.6,2.3-.19,3.29,3.49,7.62,1.35,2.55-3.59,1.98-8.07,2.16-12.22.26-5.98-3.66-4.86-6.74-9.14-2.84,2.91-6.24,2.87-9.96,2.49-2.14-.22-4.84,2.14-5.16,4.22-1.35,8.84.69,18.25,9.4,20.32,3.17.76,6.29-.92,8.27-3.16-3.14-1.16-3.24,2.61-6.6,1.56ZM5.08,26.49c.3-2.84.2-5.8.16-8.31-1.57-.27-2.59.14-3.28.94-1.06,1.24-1.06,5.39.02,6.54.56.6,1.91,1.39,3.1.83ZM35.98,19.36c-.63-1.18-2.26-1.37-3.59-1.15l.02,8.43c1.19.33,2.17.25,2.95-.5,1.33-1.29,1.25-5.61.63-6.77ZM32.93,28.37c-.74-.17-1.69-.29-2.61-.14-.56,1.31-1.11,2.38-1.17,3.51,1.44-.06,2.43-.05,3.23-.55.56-.35.73-1.45.56-2.82ZM21.54,31.76c-.64-.72-2.77-.62-2.96.13-.38,1.51.95,2.19,1.92,1.93s1.93-1.05,1.04-2.06Z"/>
  <path class="cls-1" d="M35.84,46.16c-3.18-2.21-5.88-4.52-9.81-4.88-3.76,4.81-11.25,4.67-14.99-.1-3.99.18-6.4,2.84-9.45,5.3-.35-4.21,5.73-4.53,10.02-7.42,1.57,3.08,4.07,4.67,6.85,4.76,3.17.1,5.77-1.4,7.27-4.59l4.74,2.49c1.92,1,5.14,1.04,5.37,4.44Z"/>
</svg>