<?xml version="1.0" encoding="UTF-8"?>
<svg id="Capa_2" data-name="Capa 2" xmlns="http://www.w3.org/2000/svg" viewBox="0 0 68.89 45.16">
  <defs>
    <style>
      .cls-1 {
        fill: #8bed02;
      }
    </style>
  </defs>
  <path class="cls-1" d="M8.52,39.78c.64-2.98,5.26-4.53,3.95-6.45-.88-1.3-3.12,1.64-3.63.21-.19-.52-.05-1.02.59-1.51,1.48-1.13,4.22-1.21,5.04.8.93,2.29-1.14,3.72-3.01,5.46,1.42.22,2.81-.54,3.83,1.23-2.14.66-4.15.69-6.77.26Z"/>
  <path class="cls-1" d="M68.81,42.54c.03.94-.44,2.62-1.79,2.62l-66.84-.09c0-5.54.5-10.07-.07-15-.12-1.05-.26-2.08.28-2.81.73-.98,1.91-.75,3.18-.65,6.34.5,12.43.27,18.62-.05l.4-7.26,20.35-.09c1.02,0,3.18-.5,3.59.8.79,2.51.14,5.16.32,7.79h20.32c.92,0,1.75.87,1.73,1.75-.11,4.43-.22,8.49-.08,12.99ZM45.4,20.38h-21.89v23.74h21.89v-23.74ZM22.15,43.75c.4-5.49.44-10.43-.03-15.75l-20.48.02c-.34,5.46-.28,10.53-.11,15.92,7.06.19,13.74.39,20.61-.18ZM50.73,44.05l16.94.05c0-5.12.18-9.79-.31-14.74-7.12-.8-13.62-.11-20.53.17v14.21c1.25-.05,2.42.3,3.89.3Z"/>
  <path class="cls-1" d="M54.29,39.87c-.57-2.01,3.97.81,4.02-.99.06-1.86-2.25-1.43-2.5-2.09-.34-.88,1.42-1.44,1.6-2.16.1-.39-.3-.87-1.06-.59-.63.23-1.06.13-1.36.15-.56.03-.92-1.23-.22-1.45,1.38-.44,3.44-.76,5.06-.02.59.94-.73,2.45-1.51,3.12,1.26.85,1.98,1.62,1.98,2.6,0,1.16-.54,2.06-1.89,2.57-1.07.41-3.62.64-4.12-1.14Z"/>
  <g>
    <path class="cls-1" d="M34.8,13.5l-5.12,2.47c-.25-1.97.12-3.6.64-5.5l-3.81-4.02c1.86-1.13,3.67-.82,5.38-1.29l2.33-5.16c1.86,1.31,1.82,3.35,2.65,5,1.58.65,3.8.33,5.74,1.56l-3.75,3.83c-.06,1.62,1.04,3.3.47,5.48-1.71-.48-2.98-1.28-4.52-2.37ZM37.84,13.77c-.29-1.78-1.09-2.88-.52-4.04.42-.86,1.59-1.21,2.58-2.55-3.74-.33-4.09-.75-5.47-4.07-.61,1.29-.77,2.59-1.59,3.23-.92.71-2.23.52-3.52.79.88,1.46,2.22,1.93,2.41,2.81.29,1.32-.29,2.32-.42,3.58,1.47-.75,2.21-1.58,3.63-1.37.83.12,1.39,1.08,2.9,1.62Z"/>
    <path class="cls-1" d="M33.73,36.53c-1.3-.56-.07-1.27.01-1.57.44-1.56.14-4.22.16-5.72-.82.02-1.03.16-1.25.2-.63.11-.9-.44-.88-.77.06-.98,2.36-1.76,3.34-1.57,2.27.45-1.53,6.02,2.35,9.27-1.53.64-2.92.52-3.74.17Z"/>
  </g>
</svg>