<?xml version="1.0" encoding="UTF-8"?>
<svg id="Capa_2" data-name="Capa 2" xmlns="http://www.w3.org/2000/svg" viewBox="0 0 44.59 44.37">
  <defs>
    <style>
      .cls-1 {
        fill: #8bed02;
      }
    </style>
  </defs>
  <path class="cls-1" d="M27.4,44.37c-1.44-1.52-2.1-3.32-3.09-5.14-1.11-.19-2.88-.38-3.81.15-1.04,1.67-1.51,3.38-2.85,4.95l-6.75-2.62.8-6.02-2.12-2.49-6.12,1.81-3.46-7.49,4.86-3.21c.76-.5.76-2.55.57-3.41L.09,16.95l3.04-6.9c2.36.01,4.4.82,6.36,1.63l2.25-2.56-.97-6.13C12.91,1.46,15.28.74,17.64.14l2.87,4.78c.53.88,2.91.65,3.76.16,1.04-1.68,1.67-3.7,3.22-5.08,2.34.61,4.49,1.48,6.66,2.82l-1.04,5.98c-.18,1.03,1.75,2.53,2.81,2.38,2.01-.27,3.5-1.12,5.68-1.22l2.96,7.38-4.8,3.19c-.55.65-.59,2.73-.24,3.6l5.06,3.48-3.09,7.25-6.05-1.7c-.9.72-1.76,1.54-2.44,2.56l1.02,5.73-6.62,2.92ZM17.06,42.48c1.03-1.85,1.45-3.78,2.99-4.68,1.08-.63,4.25-.83,4.86.13l2.96,4.62,4.29-1.65-.77-6.04,3.61-3.28,5.7,1.32c.69-1.61,1.54-3.07,1.81-4.64l-4.62-3.3c-1.02-.73-.82-4.14.04-5.12,1.36-1.56,3.32-2.25,4.95-3.29-.86-1.58-1.54-3.2-2.07-4.99l-5.89,1.7c-1.02-1.09-2.78-2.16-3.36-3.51-.63-2.16.66-4.21,1.06-6.19l-4.83-1.66c-1.01,1.65-1.51,3.99-3.18,4.96-1.04.61-4.2.72-4.79-.21l-2.81-4.39c-1.64,0-3.26.7-4.71,1.53.45,1.99,1.36,3.94.94,5.97-.24,1.18-2.32,3.16-3.51,3.26-1.94.16-3.61-.89-5.57-1.18-.93,1.33-1.42,2.82-2.03,4.51l4.69,3.43c1.02.75.72,4.17-.1,5.19-1.16,1.45-3.46,1.74-4.36,3.27-.15,1.31.75,3.89,1.91,4.52,1.59.49,3.26-1.22,4.96-1.13,1.58.08,3.74,2.45,4.18,3.96l-.89,5.27c1.37.73,2.87,1.57,4.52,1.62Z"/>
  <path class="cls-1" d="M20.66,32.1c-6.13-1.41-9.4-7.21-7.64-12.6,1.74-5.35,7.67-8.31,12.83-6.26,5.62,2.23,7.98,8.52,5.04,14-1.87,3.48-6.09,5.82-10.23,4.87ZM21.05,14.47c-4.89.97-7.29,5.56-6.54,9.64.81,4.33,5.13,6.87,9.15,6.23,4.68-.75,7.49-4.84,6.67-9.38-.72-3.96-4.69-7.4-9.28-6.48Z"/>
</svg>