<?xml version="1.0" encoding="UTF-8"?>
<svg id="Capa_2" data-name="Capa 2" xmlns="http://www.w3.org/2000/svg" viewBox="0 0 39.94 43.79">
  <defs>
    <style>
      .cls-1 {
        fill: #8bed02;
      }
    </style>
  </defs>
  <path class="cls-1" d="M39.94,28.49c-6.15,2.74-13.37,3.91-18.65.48s-11.32-3.52-16.72-.68l-.29,14.37c-.02,1.22-1.89,1.29-2.74.96C.49,43.21,0,42.45,0,41L.02,2.23C.02.71,1.29-.05,2.45,0c1.27.06,2.03.97,2.06,2.77,1.51-.85,3.03-.76,4.63-1.2,9.45-2.62,13.66,4.43,19.95,4.38,3.68-.03,7.02-1.43,10.74-2.56l.11,25.09ZM3.8.6H.57v42.02h3.23V.6ZM7.03,10.37c2.07-.99,4.07-.98,6.3-.78.16-2.48.19-4.74.04-7.33-2.83-.43-5.45.15-7.91,1.6.07,4.5-.53,7.57,1.11,6.62.07,0,.24-.01.45-.11ZM16.24,4.54c3.44.45,5.64,2.7,5.27,1.16-.47-2.01-3.67-2.95-7.02-3.25-.48,1.97-.46,4.02.04,6.32.07.6.24,1.09,1.41.95l.3-5.17ZM37.16,20.98v5.98s-4.51,1.3-4.51,1.3l-.04-4.79c-.38-.1-.74-.17-1.22-.13,0,2.35-.02,4.35.19,6.64,2.16-.5,4.69-.73,6.57-1.98,1.59-1.06.84-3.01.89-4.41.17-4.55.76-8.99.01-13.54-.32-1.94-.24-3.61-.27-5.73-2.18,1.73-4.6,2.26-7.41,2.4l-.05,7.3c1.7.02,3.57.13,4.72-1.3-1,0-2.27.66-3.11-.32-.63-.73-.79-3.4-.01-3.97,1.25-.92,2.84-1,4.26-1.45.12,2.28.65,4.88-.33,6.68-1.37,1.21-3.69,1.13-5.34,1.61l-.05,7.33,5.7-1.61ZM30.56,14.03c-.16-2.85-.14-4.62.01-6.86l-7.87-1.45c.02,2.61-.05,4.71.21,6.93,2.54,1.12,5.07,1.53,7.65,1.37ZM21.82,20.17c-.07-2.57-.33-4.65.02-7.13-2.37-1.18-4.69-2.28-7.53-2.53.05,2.33.06,4.32-.02,6.68,2.56.74,4.73,1.59,7.52,2.98ZM7.53,11.23l-.36-.04c-.37.1-1.32.43-1.53.92l-.12,5.71c.98-.08,1.68-.36,2.37-.73-.61-1.47-.96-3.13,0-4.46,1.07-.65,2.96-.12,4.23-1.45-1.52-.72-3.26-.21-4.59.05ZM24.58,15.35c1.74.54,3.1,1.7,4.84.57-2.18-1.19-4.06-1.17-6.52-1.97l-.16,5.5c-.03.9.54,1.69,1.5,1.42-.06-1.72-.38-3.72.34-5.52ZM13.38,25.24v-7.21c-2.76-.15-5.29.07-7.83.93-.22,2.62-.13,4.89,0,7.46,2.7-.61,5.04-1.29,7.83-1.19ZM16.34,24.02c-.86-.34-.78-3.38.24-3.45.83-.06,1.95.33,2.28-.67-1.29-.85-2.91-1.35-4.48-1.27-.25,2.44-.14,4.64.49,6.82,4.82.55,6.77,3.65,6.41.54l-4.95-1.97ZM30.5,30.11c-.05-2.9-.05-4.92.07-7.11-2.82-.05-5.13-.69-7.89-1.48v7.2c2.48,1.08,5.15,1.9,7.82,1.39Z"/>
</svg>