<?xml version="1.0" encoding="UTF-8"?>
<svg id="Capa_2" data-name="Capa 2" xmlns="http://www.w3.org/2000/svg" viewBox="0 0 55.34 40.93">
  <defs>
    <style>
      .cls-1 {
        fill: #8bed02;
      }

      .cls-2 {
        fill: none;
        stroke: #8bed02;
        stroke-miterlimit: 10;
        stroke-width: 2px;
      }
    </style>
  </defs>
  <path class="cls-1" d="M9.53,26.58c-.03,2.25-.58,4.12-2.7,4.49-1.66.29-3.28-1.36-3.3-2.98-.03-2.14,1.82-3.66,4.36-2.92,1.74-2.32,4.36-4.25,5.49-7.08.42-1.14-.28-2.87,1.06-3.71,1.05-.66,2.14-1.15,3.61-.37,1.03.55.95,2.23,1.46,3.32,1.13,1.87,3.5,2.45,5.02,3.91,1.2-.49,2.61-.52,3.71-.81l4.57-5.96c-.36-1.19-.55-2.61.32-3.45.89-.86,2.04-1.31,3.23-.73,1.02.5,1.72,1.57,1.59,3.38,1.12-.4,2.46-.28,3.64-.08,1.34-1.49,3.3-3.11,4.53-4.78-.03-1.8.19-3.53,1.89-4.12,1.9-.66,3.69.65,3.8,2.46.13,2.39-1.51,2.98-3.73,3.38-1.79.32-4.67,3.17-5.1,4.94-.47,1.96-.68,3.65-2.8,3.92-1.72.22-3.38-1.39-3.17-3.5-2.99-1.1-4.97,2.55-7.48,6.15.23,1.27.16,2.57-.44,3.27-.99,1.16-2.03,1.52-3.27,1.14-1.36-.41-1.8-1.85-2.17-3.31l-5.28-4.1c-1.25.41-2.03.62-3.54.57l-5.32,6.97Z"/>
  <rect class="cls-2" x="1" y="1" width="53.34" height="38.93"/>
</svg>