<?xml version="1.0" encoding="UTF-8"?>
<svg id="Capa_2" data-name="Capa 2" xmlns="http://www.w3.org/2000/svg" viewBox="0 0 55.51 39.05">
  <defs>
    <style>
      .cls-1 {
        fill: #8bed02;
      }
    </style>
  </defs>
  <path class="cls-1" d="M28.1,8.5c-1.42.77-1.55-2.19-1.33-6.13-5.31-.01-10.38,1.91-14.55,5.46l3.13,4.21c.11.7-1,1.31-1.38.87l-3.39-3.87c-4.21,4.02-7.23,8.68-7.97,14.72,2.82.06,5.32-.04,5.57,1.21s-2.51.85-5.91.48c-.37,4.1-.11,7.91,1.2,11.75,4.98.89,9.74-.42,8.93,1.53-3.57-.21-6.5.07-10.27.31C-1.7,29.31-.38,18.6,6.25,10.53,12.58,2.82,22.72-1.64,32.99.56c17.38,3.71,27.09,22.05,20.39,38.32l-9.4-.32v-.82s7.8-.21,7.8-.21c1.4-3.84,1.96-8.03,1.49-12.07-2.27.08-3.98.75-6.2-.18,1.41-2.07,3.71-1.47,5.95-1.37-.76-5.92-3.91-11.09-8.23-15l-3.49,4.2c-.21.26-1.39-.45-1.35-.92l3.34-4.52c-4.29-3.33-9.3-5.33-14.61-5.34.04,2.9.34,5.69-.58,6.18Z"/>
  <path class="cls-1" d="M31.55,28.36l1.94-3.48c-1.44,1.13-1.94,2.91-4.1,1.63l12.01-11.43c.25.35.69.75.92.89l-9.47,13.27c-.46-.14-.89-.41-1.31-.88Z"/>
  <path class="cls-1" d="M30.8,31.51c1.04,1.61-.18,3.19-1.83,3.78-1.53.55-3.22-.05-4.31-1.57-.93-1.29-1.03-2.83-.16-4.03.82-1.13,2.23-2.33,3.64-.85-1.42.94-2.33,1.74-2.39,2.63-.1,1.37.83,2.23,1.86,2.25,1.24.03,1.98-.43,3.19-2.21Z"/>
</svg>